<svg id="Teamwork_Projects" data-name="Teamwork Projects" xmlns="http://www.w3.org/2000/svg" viewBox="0 0 175.84 139.01"><defs><style>.cls-1{fill:#65d656;}.cls-2{fill:#3b93f7;}</style></defs><title>teamwork-projects-mark-blue-green</title><g id="Type"><path class="cls-1" d="M44.4,73.07l-13.72-.95c-5.49,0-8.67,3.16-7.29,7.05l28.71,72.25Z" transform="translate(-23.08 -41.5)"/><path class="cls-2" d="M190,79.87c-.74-5.43-2-7.36-5.41-7.61l-52.19-4.93c-4.53-.33-8-4.06-8.14-9.2a9.78,9.78,0,0,0-8.56-9.68L59.82,41.56c-6.12-.64-10.79,3.42-10.32,9L61.63,173.94c.35,4.15,4.83,7,10,6.5l121-20.77c3.47-.64,6.55-2.89,6.32-6.45Zm-27.46,8.19c1.95-1.65,5-.63,6.67,1.89s1.6,5.82-.15,7.33-4.82,1-6.77-2C160.67,92.87,160.76,89.6,162.57,88.06Zm-15.46,1.25c2.35-1.84,5.86-.73,7.85,2.12s1.77,6.63-.32,8.23c-2.34,1.78-5.78.69-7.8-2.17S145,91,147.12,89.31Zm-21.91-6.53c2.55-2.19,6.88-1.32,9.69,2s2.92,7.71.35,9.91c-2.81,2.4-7.2,1.22-9.78-1.92C122.66,89.33,122.58,85,125.21,82.78ZM93.45,74.19c2.9-2.14,7.22-.84,9.63,2.81,2.29,3.46,2.53,8-.14,10-3,2.19-7.14.93-9.57-2.75S90.67,76.25,93.45,74.19Zm10.19,81.06c-4.6,1-8.74,1.47-12.75-1.33s-4.46-11.56-4.64-13.62c-.09-1.09-.14-16.77,0-23.56a3.47,3.47,0,0,0-.64-2.36c-1.38-1.47-2.87-.4-5.44-2.36a5.29,5.29,0,0,1-2-4.21,4.55,4.55,0,0,1,1.52-3.67c2.12-1.95,4.6-.44,5.86-1.38.82-.61.38-3.41.68-7.39.24-3.12,2.06-6.66,7.33-6.22a34.35,34.35,0,0,1,11.29,3.07A9.53,9.53,0,0,1,110,100c.17,1.58-.27,4.61.69,6.31.64,1.14,3.1,1.47,3.64,1.51s4.69.85,4.69,4.71c0,1.79-1.15,3.31-2.25,3.44a37.14,37.14,0,0,1-3.74,0c-2.19,0-2.2,1.25-2.23,1.8s.74,22.94,1,25.43a11.15,11.15,0,0,0,1.56,4.67c1.43,1.95,3,2.44,6.21,3.8C119.61,151.65,108.36,154.27,103.64,155.25Zm67.13-10.59c-1.38.3-20,3.58-20,3.58-2.66.26-13.67,2.65-17.81,2.3s-5.94-1.79-7.61-4-2.34-7.39-2.58-9.43c-.52-4.36-1.54-23.55-1.89-31.09-.27-5.94,1.67-8.81,5.2-9.11,2.5-.41,9.46,1.23,11.83,2.74,3.11,2,3.32,5.48,3.49,6.75.36,2.67,1.76,20.77,2.66,28.64.83,7.3,2.1,9.09,3.07,10.92s3.65,2.28,3.65,2.28a49.43,49.43,0,0,1-3-10.5c-.29-1.55-1-6.75-1.62-12.54-.8-7.72-1.49-16.5-1.69-19.2a5.23,5.23,0,0,1,.84-3.21,4.15,4.15,0,0,1,3.51-1.42,30.52,30.52,0,0,1,6.35,1.19,6.57,6.57,0,0,1,4.21,5.44c.15.91,1.06,9.43,1.9,17.13.68,6.22,1.34,11.9,1.41,12.58.14,1.3.37,2.9.91,3.44s1.11-.06,1.27-.46a6.51,6.51,0,0,0,0-2.37c0-.38-3.08-31.94-3.36-35.21-.12-1.36-.17-4.55,3-4.2a19.51,19.51,0,0,1,4.4.78,5.74,5.74,0,0,1,3.77,4.57s1,7.44,2,15.48c.81,6.71,1.92,13.55,1.86,17C176.4,143.71,172,144.39,170.77,144.66Z" transform="translate(-23.08 -41.5)"/></g></svg>